<svg width="100%" height="100%" id="svg" viewBox="0 0 1440 490" xmlns="http://www.w3.org/2000/svg" class="transition duration-300 ease-in-out delay-150"><defs><linearGradient id="gradient" x1="0%" y1="50%" x2="100%" y2="50%"><stop offset="5%" stop-color="#fcb900"></stop><stop offset="95%" stop-color="#8ed1fc"></stop></linearGradient></defs><path d="M 0,500 C 0,500 0,166 0,166 C 77.35885167464113,182.36363636363637 154.71770334928226,198.72727272727272 245,194 C 335.28229665071774,189.27272727272728 438.48803827751203,163.4545454545455 549,166 C 659.511961722488,168.5454545454545 777.3301435406697,199.45454545454544 890,215 C 1002.6698564593303,230.54545454545456 1110.1913875598088,230.72727272727272 1201,220 C 1291.8086124401912,209.27272727272728 1365.9043062200956,187.63636363636363 1440,166 C 1440,166 1440,500 1440,500 Z" stroke="none" stroke-width="0" fill="url(#gradient)" fill-opacity="0.53" class="transition-all duration-300 ease-in-out delay-150 path-0"></path><defs><linearGradient id="gradient" x1="0%" y1="50%" x2="100%" y2="50%"><stop offset="5%" stop-color="#fcb900"></stop><stop offset="95%" stop-color="#8ed1fc"></stop></linearGradient></defs><path d="M 0,500 C 0,500 0,333 0,333 C 113.48325358851676,307.9952153110048 226.96650717703352,282.99043062200957 330,295 C 433.0334928229665,307.00956937799043 525.6172248803828,356.0334928229665 612,359 C 698.3827751196172,361.9665071770335 778.5645933014354,318.87559808612446 864,312 C 949.4354066985646,305.12440191387554 1040.1244019138755,334.4641148325359 1137,344 C 1233.8755980861245,353.5358851674641 1336.9377990430621,343.26794258373207 1440,333 C 1440,333 1440,500 1440,500 Z" stroke="none" stroke-width="0" fill="url(#gradient)" fill-opacity="1" class="transition-all duration-300 ease-in-out delay-150 path-1"></path></svg>